<svg width="473" height="146" xmlns="http://www.w3.org/2000/svg"><g fill="none" fill-rule="evenodd"><path d="M114.83 92.366c.158-1.023.967-1.802 2.091-1.802.524 0 1.118.171 1.744.562 34.731 21.781 77.697 34.903 122.067 34.903 29.943 0 62.841-6.701 93.117-20.544 4.563-2.079 8.386 3.239 3.922 6.811-27.008 21.472-66.163 32.897-99.879 32.897-47.248 0-89.795-18.83-122.004-50.168-.632-.614-.964-1.287-1.058-1.919v-.74z" fill="#00AAE1"/><path d="M315.493 95.751c7.986-6.03 18.604-8.042 27.408-8.042 8.235 0 14.886 1.763 16.302 3.648 2.976 3.933-.766 31.201-15.261 44.206-2.218 2.014-4.328.929-3.35-1.699 3.259-8.722 10.553-28.306 7.096-33.054-3.452-4.759-22.835-2.268-31.527-1.145-1.347.171-2.113-.38-2.225-1.201v-.443c.091-.712.596-1.543 1.557-2.27z" fill="#00AAE1"/><path d="M450.359 68.709c-7.099 0-12.648-2.152-16.645-6.456s-5.996-10.308-5.996-18.012c0-7.645 1.999-13.619 5.996-17.922 3.997-4.304 9.546-6.456 16.645-6.456 7.1 0 12.648 2.152 16.645 6.456C471.001 30.622 473 36.596 473 44.241c0 7.704-1.999 13.708-5.996 18.012-3.997 4.304-9.545 6.456-16.645 6.456zm0-10.113c6.264 0 9.397-4.785 9.397-14.355 0-9.511-3.133-14.266-9.397-14.266s-9.396 4.755-9.396 14.266c0 9.57 3.132 14.355 9.396 14.355zM401.006 48.361c-3.329 0-6.223-.321-8.673-.97.347 3.954 1.535 6.79 3.55 8.499 2.015 1.708 5.064 2.566 9.153 2.566 1.631 0 3.226-.104 4.776-.313 1.543-.202 3.691-.664 6.437-1.366.169-.059.346-.104.524-.134.177-.03.317-.045.435-.045.997 0 1.491.679 1.491 2.037v4.075c0 .94-.133 1.604-.391 1.992-.266.38-.775.724-1.535 1.015-4.267 1.649-8.792 2.477-13.582 2.477-7.241 0-12.8-2-16.682-6.022-3.883-4.014-5.824-9.767-5.824-17.266 0-7.671 1.985-13.692 5.956-18.058 3.972-4.372 9.486-6.558 16.55-6.558 5.432 0 9.684 1.328 12.747 3.984 3.064 2.657 4.599 6.201 4.599 10.626 0 4.432-1.653 7.782-4.945 10.051-3.3 2.275-8.164 3.41-14.586 3.41zm1.225-19.125c-5.61 0-8.85 3.485-9.721 10.447 2.332.477 4.931.709 7.795.709 2.974 0 5.137-.456 6.48-1.373 1.344-.911 2.016-2.314 2.016-4.201 0-3.724-2.193-5.582-6.57-5.582zM345.712 68.347c-3.877 0-7.248-1.008-10.112-3.024-2.864-2.017-5.056-4.815-6.577-8.397-1.522-3.581-2.282-7.719-2.282-12.414 0-7.464 1.759-13.438 5.279-17.922 3.52-4.485 8.174-6.727 13.961-6.727 4.713 0 8.8 1.354 12.26 4.063V2.799c0-.843.179-1.43.537-1.761.358-.331.925-.496 1.7-.496h8.591c.835 0 1.417.165 1.745.496.328.331.492.918.492 1.761v62.298c0 .783-.164 1.354-.492 1.716-.328.361-.91.541-1.745.541h-7.159c-.716 0-1.268-.15-1.656-.451-.387-.301-.671-.813-.85-1.535l-.537-2.077c-3.699 3.371-8.083 5.056-13.155 5.056zm4.296-9.931c2.864 0 5.608-.843 8.233-2.528V32.052c-2.565-1.505-5.519-2.257-8.86-2.257-3.162 0-5.518 1.189-7.069 3.566-1.551 2.378-2.327 5.974-2.327 10.789 0 4.816.82 8.397 2.461 10.745 1.641 2.347 4.161 3.521 7.562 3.521zM307.323 67.354c-.776 0-1.343-.18-1.701-.541-.358-.362-.537-.933-.537-1.716V23.475c0-.843.179-1.43.537-1.761.358-.331.925-.497 1.701-.497h8.591c.835 0 1.417.166 1.745.497.328.331.492.918.492 1.761v41.622c0 .783-.164 1.354-.492 1.716-.328.361-.91.541-1.745.541h-8.591zM311.618 14.085c-2.267 0-4.087-.632-5.459-1.896-1.372-1.264-2.058-2.98-2.058-5.147 0-2.166.686-3.882 2.058-5.146C307.531.632 309.351 0 311.618 0c2.267 0 4.087.632 5.459 1.896 1.372 1.264 2.058 2.98 2.058 5.146 0 2.167-.686 3.883-2.058 5.147-1.372 1.264-3.192 1.896-5.459 1.896zM271.822 67.354c-.597 0-1.089-.075-1.477-.225a2.34 2.34 0 0 1-.984-.723c-.269-.331-.522-.797-.761-1.399l-15.303-40.178a36.724 36.724 0 0 1-.447-1.264 3.196 3.196 0 0 1-.179-.993c0-.903.597-1.355 1.79-1.355h8.949c.954 0 1.655.181 2.103.542.447.361.79.963 1.029 1.806l9.217 31.962 9.397-31.962c.238-.843.581-1.445 1.029-1.806.447-.361 1.148-.542 2.103-.542h8.68c1.194 0 1.79.452 1.79 1.355 0 .301-.059.632-.179.993-.119.361-.268.782-.447 1.264l-15.303 40.178c-.239.602-.492 1.068-.761 1.399a2.406 2.406 0 0 1-.939.723c-.358.15-.865.225-1.522.225h-7.785z" fill="#FFF"/><path d="M212.475 48.506c-3.415 0-6.384-.328-8.898-.99.356 4.035 1.575 6.927 3.643 8.67 2.067 1.744 5.195 2.619 9.39 2.619 1.674 0 3.31-.107 4.9-.32 1.583-.205 3.786-.677 6.604-1.393a3.33 3.33 0 0 1 .537-.137c.182-.03.326-.046.447-.046 1.022 0 1.53.693 1.53 2.079v4.156c0 .959-.137 1.636-.402 2.032-.272.388-.795.739-1.575 1.035-4.377 1.683-9.019 2.528-13.934 2.528-7.429 0-13.132-2.04-17.115-6.143-3.984-4.096-5.975-9.964-5.975-17.615 0-7.825 2.037-13.968 6.111-18.421 4.074-4.461 9.732-6.691 16.979-6.691 5.574 0 9.936 1.355 13.079 4.065 3.142 2.71 4.718 6.326 4.718 10.84 0 4.521-1.697 7.939-5.074 10.253-3.386 2.322-8.376 3.479-14.965 3.479zm1.257-19.51c-5.755 0-9.08 3.555-9.973 10.657 2.393.487 5.059.723 7.997.723 3.052 0 5.271-.464 6.649-1.401 1.378-.928 2.067-2.359 2.067-4.285 0-3.799-2.249-5.694-6.74-5.694zM126.023 25.654c3.173-2.109 6.036-3.601 8.58-4.469a24.063 24.063 0 0 1 7.869-1.317c5.392 0 9.193 1.934 11.412 5.786 3.052-2.048 5.93-3.525 8.626-4.423a26.064 26.064 0 0 1 8.353-1.363c4.195 0 7.444 1.18 9.754 3.525 2.302 2.352 3.461 5.633 3.461 9.85V65.13c0 .784-.167 1.355-.492 1.713-.334.365-.917.54-1.757.54h-8.626c-.78 0-1.348-.175-1.704-.54-.363-.358-.545-.929-.545-1.713V36.135c0-4.095-1.825-6.143-5.483-6.143-3.234 0-6.498.777-9.792 2.345V65.13c0 .784-.167 1.355-.492 1.713-.333.365-.917.54-1.757.54h-8.626c-.78 0-1.348-.175-1.704-.54-.363-.358-.537-.929-.537-1.713V36.135c0-4.095-1.833-6.143-5.483-6.143-3.355 0-6.649.807-9.891 2.436V65.13c0 .784-.166 1.355-.492 1.713-.333.365-.916.54-1.749.54h-8.634c-.772 0-1.348-.175-1.703-.54-.356-.358-.538-.929-.538-1.713V23.484c0-.845.182-1.431.538-1.758.355-.335.931-.495 1.703-.495h6.475c1.379 0 2.212.662 2.515 1.987l.719 2.436zM89.825 23.486c0-.845.182-1.431.538-1.759.364-.335.932-.502 1.712-.502h8.625c.841 0 1.424.167 1.75.502.333.328.5.914.5 1.759v41.638c0 .784-.167 1.362-.5 1.72-.326.358-.909.541-1.75.541h-8.625c-.78 0-1.348-.183-1.712-.541-.356-.358-.538-.936-.538-1.72V23.486zM96.384 14.092c-2.28 0-4.105-.632-5.483-1.895-1.378-1.271-2.06-2.984-2.06-5.154 0-2.169.682-3.882 2.06-5.145C92.279.634 94.104.002 96.384.002c2.279 0 4.104.632 5.483 1.896 1.378 1.263 2.067 2.976 2.067 5.145 0 2.17-.689 3.883-2.067 5.154-1.379 1.263-3.204 1.895-5.483 1.895zM66.316 28.092c2.393-2.649 4.657-4.529 6.785-5.648a14.441 14.441 0 0 1 6.786-1.667h1.257c.84 0 1.439.168 1.795.495.363.335.537.921.537 1.758v7.59c0 .784-.159 1.355-.492 1.72-.326.358-.909.54-1.749.54-.424 0-.962-.03-1.621-.091a28.266 28.266 0 0 0-2.514-.091c-1.379 0-3.052.198-5.036.586-1.977.396-3.651.89-5.029 1.492v30.349c0 .784-.166 1.355-.492 1.721-.333.357-.916.54-1.757.54H56.16c-.78 0-1.348-.183-1.704-.54-.363-.366-.545-.937-.545-1.721V23.487c0-.845.182-1.431.545-1.766.356-.327.924-.495 1.704-.495h6.468c1.378 0 2.219.663 2.522 1.987l1.166 4.879zM.09 23.483c0-.837.182-1.423.546-1.758.356-.335.924-.495 1.704-.495h6.474c1.379 0 2.212.662 2.515 1.987l.628 2.344c1.795-1.743 3.969-3.128 6.513-4.156 2.545-1.02 5.142-1.53 7.778-1.53 5.808 0 10.405 2.139 13.79 6.41 3.385 4.278 5.082 10.055 5.082 17.348 0 4.993-.841 9.362-2.515 13.092-1.681 3.738-3.96 6.615-6.831 8.625-2.877 2.025-6.172 3.029-9.89 3.029-2.454 0-4.794-.388-7.005-1.172-2.219-.784-4.105-1.865-5.665-3.25v19.776c0 .845-.166 1.431-.492 1.766-.333.327-.916.495-1.757.495H2.34c-.78 0-1.348-.168-1.704-.495-.364-.335-.546-.921-.546-1.766v-60.25zm21.932 6.326c-3.113 0-6.051.814-8.808 2.436v23.757c2.636 1.629 5.574 2.444 8.808 2.444 3.355 0 5.824-1.142 7.414-3.433 1.59-2.292 2.385-5.9 2.385-10.84 0-5.001-.78-8.64-2.34-10.931-1.56-2.291-4.044-3.433-7.459-3.433z" fill="#00AAE1"/></g></svg>