<?xml version="1.0" encoding="UTF-8" standalone="no"?>
<!-- Created with Inkscape (http://www.inkscape.org/) -->

<svg
   xmlns:dc="http://purl.org/dc/elements/1.1/"
   xmlns:cc="http://creativecommons.org/ns#"
   xmlns:rdf="http://www.w3.org/1999/02/22-rdf-syntax-ns#"
   xmlns:svg="http://www.w3.org/2000/svg"
   xmlns="http://www.w3.org/2000/svg"
   xmlns:sodipodi="http://sodipodi.sourceforge.net/DTD/sodipodi-0.dtd"
   xmlns:inkscape="http://www.inkscape.org/namespaces/inkscape"
   id="svg2985"
   version="1.1"
   inkscape:version="0.91 r13725"
   width="591.02246"
   height="54.9375"
   sodipodi:docname="CBS_All_Access_logo_-_Horizontal_Variant.svg">
  <metadata
     id="metadata2991">
    <rdf:RDF>
      <cc:Work
         rdf:about="">
        <dc:format>image/svg+xml</dc:format>
        <dc:type
           rdf:resource="http://purl.org/dc/dcmitype/StillImage" />
        <dc:title />
      </cc:Work>
    </rdf:RDF>
  </metadata>
  <defs
     id="defs2989" />
  <sodipodi:namedview
     pagecolor="#ffffff"
     bordercolor="#666666"
     borderopacity="1"
     objecttolerance="10"
     gridtolerance="10"
     guidetolerance="10"
     inkscape:pageopacity="0"
     inkscape:pageshadow="2"
     inkscape:window-width="1366"
     inkscape:window-height="705"
     id="namedview2987"
     showgrid="false"
     inkscape:zoom="2.8284271"
     inkscape:cx="483.24294"
     inkscape:cy="29.691561"
     inkscape:window-x="-8"
     inkscape:window-y="-8"
     inkscape:window-maximized="1"
     inkscape:current-layer="svg2985"
     fit-margin-top="0"
     fit-margin-left="0"
     fit-margin-right="0"
     fit-margin-bottom="0" />
  <g
     id="g3095"
     transform="translate(-618.35501,-0.03125)" />
  <g
     id="g3060"
     transform="matrix(2.0976833,0,0,2.1811352,-421.98692,-9.4223563)"
     style="fill:black;fill-opacity:1">
    <g
       style="font-size:30px;font-style:normal;font-weight:normal;text-align:start;text-anchor:start;fill:black;fill-opacity:1;font-family:Gotham Book"
       id="text3062" />
    <g
       style="font-size:30px;font-style:normal;font-weight:normal;text-align:start;text-anchor:start;fill:black;fill-opacity:1;font-family:Gotham Book"
       id="text3064" />
  </g>
  <g
     id="g3132"
     transform="translate(-1.1025486,-0.03125)"
     style="fill:#0066ff">
    <path
       id="path3015"
       d="m 166.40625,0.15625 c -14.69166,0 -26.625,12.270882 -26.625,27.40625 0,15.135368 11.93334,27.40625 26.625,27.40625 C 181.09791,54.96875 193,42.697868 193,27.5625 193,12.427132 181.09791,0.15625 166.40625,0.15625 z M 166.9375,12.125 c 17.62927,0.194564 24.4375,15.15625 24.4375,15.15625 0,0 -7.40086,15.71875 -24.4375,15.71875 -18.96987,0 -25.71875,-15.71875 -25.71875,-15.71875 0,0 7.73507,-15.354725 25.71875,-15.15625 z"
       style="fill:#0066ff;fill-opacity:1;fill-rule:evenodd;stroke:none"
       inkscape:connector-curvature="0" />
    <path
       inkscape:connector-curvature="0"
       style="fill:#0066ff;fill-opacity:1;fill-rule:evenodd;stroke:none"
       d="m 181.21227,27.559909 c 0,8.036043 -6.63441,14.550543 -14.81835,14.550543 -8.18395,0 -14.81835,-6.5145 -14.81835,-14.550543 0,-8.036042 6.6344,-14.550542 14.81835,-14.550542 8.18394,0 14.81835,6.5145 14.81835,14.550542 z"
       id="path3020" />
    <path
       d="m 25.749608,51.880186 c -3.412982,0 -6.621743,-0.601721 -9.626292,-1.805165 C 13.118731,48.871578 10.512828,47.189479 8.3055994,45.028716 6.0983509,42.867965 4.3460341,40.30606 3.0486434,37.342993 1.7512437,34.379953 1.1025461,31.160574 1.1025486,27.684846 l 0,-0.134634 C 1.1025461,24.164291 1.7397838,20.989784 3.0142638,18.0267 4.2887347,15.06368 6.0410515,12.479338 8.2712198,10.273666 10.501368,8.0680751 13.152763,6.3414407 16.225413,5.0937582 19.298027,3.846167 22.65542,3.2223486 26.297599,3.2223009 c 2.457245,4.77e-5 4.687402,0.2339372 6.690481,0.701669 2.00301,0.467826 3.835199,1.1361786 5.496573,2.0050598 1.661292,0.8689715 3.163229,1.9048159 4.505812,3.1075368 1.342496,1.2028045 3.443733,4.4241625 4.491142,6.6677565 l -10.874291,4.829211 c -1.365496,-1.694308 -2.867781,-3.031353 -4.506854,-4.011138 -1.639141,-0.979718 -3.619266,-1.469595 -5.940382,-1.469631 -1.683585,3.6e-5 -3.219554,0.322996 -4.607909,0.968876 -1.388403,0.64595 -2.583355,1.525754 -3.584857,2.639417 -1.001542,1.113726 -1.786716,2.427994 -2.355525,3.942807 -0.568843,1.514871 -0.853256,3.119461 -0.85324,4.813776 l 0,0.132584 c -1.6e-5,1.737877 0.284397,3.375442 0.85324,4.912705 0.568809,1.537297 1.353983,2.863122 2.355525,3.977482 1.001502,1.114389 2.196454,1.994535 3.584857,2.640437 1.388355,0.645928 2.924324,0.968887 4.607909,0.968875 1.229304,1.2e-5 2.355841,-0.133586 3.379622,-0.400807 1.023716,-0.267194 1.956826,-0.657123 2.799334,-1.169789 0.84244,-0.512641 1.639073,-1.114361 2.389905,-1.805166 0.750756,-0.690776 1.490092,-1.459075 2.218004,-2.304901 l 10.695118,5.133426 c -1.04846,2.060996 -3.104907,4.736181 -4.447403,6.028007 -1.342586,1.291836 -2.86744,2.405529 -4.574573,3.341084 -1.707212,0.935561 -3.618926,1.670885 -5.735145,2.205975 -2.116289,0.535089 -4.49473,0.802636 -7.135334,0.802633 z"
       style="font-size:30px;font-style:normal;font-weight:bold;text-align:start;text-anchor:start;fill:#0066ff;fill-opacity:1;font-family:Gotham Black"
       id="path3041"
       inkscape:connector-curvature="0"
       sodipodi:nodetypes="ssssssssccccccccccssssccccsccccccss" />
    <path
       d="m 72.011273,40.51682 c 2.048856,1.2e-5 3.619204,-0.36748 4.711049,-1.102476 1.091781,-0.734973 1.637687,-1.793253 1.637721,-3.174847 l 0,-0.132584 c -3.4e-5,-1.293176 -0.523368,-2.318481 -1.570003,-3.07592 -1.0467,-0.757403 -2.685459,-1.136113 -4.916286,-1.136133 l -10.10344,0 0,8.62196 z M 70.098517,22.805801 c 2.048857,2.7e-5 3.608093,-0.334151 4.677711,-1.002531 1.069557,-0.668325 1.604351,-1.693291 1.604382,-3.074902 l 0,-0.134612 c -3.1e-5,-1.291799 -0.500794,-2.28311 -1.502286,-2.973935 -1.001552,-0.690755 -2.503141,-1.03615 -4.504772,-1.036185 l -8.603238,0 0,8.222174 z M 48.866498,4.1564996 l 24.509541,0 c 3.00454,4.68e-5 5.576408,0.3566603 7.71562,1.0698413 2.139137,0.7132724 3.914374,1.7606756 5.325716,3.1422122 0.95564,0.9356003 1.706782,2.0271979 2.253428,3.2747949 0.546554,1.247677 0.819856,2.673789 0.819901,4.278345 l 0,0.132584 c -4.5e-5,2.718319 -0.694235,4.913074 -2.082572,6.584266 -1.388421,1.67125 -3.1522,2.952203 -5.291336,3.842863 2.912852,0.93558 5.222534,2.283506 6.929057,4.043774 1.706432,1.76031 2.55967,4.221928 2.559718,7.384863 l 0,0.134612 c -4.8e-5,4.055004 -1.581507,7.218629 -4.744388,9.490888 -3.162962,2.272267 -7.612168,3.408398 -13.347625,3.408398 l -24.64706,0 z"
       style="font-size:30px;font-style:normal;font-weight:bold;text-align:start;text-anchor:start;fill:#0066ff;fill-opacity:1;font-family:Gotham Black"
       id="path3043"
       inkscape:connector-curvature="0" />
    <path
       d="m 112.16367,51.745563 c -4.27837,0 -8.34072,-0.645916 -12.187052,-1.937746 -3.84636,-1.291831 -6.705129,-2.505231 -9.663853,-5.090259 l 6.830133,-9.346989 c 4.778412,3.743606 9.944382,5.6154 15.497922,5.615392 1.77521,8e-6 3.12956,-0.278755 4.06304,-0.836291 0.93343,-0.557517 1.40016,-1.348255 1.40019,-2.372214 l 0,-0.134634 c -3e-5,-0.489522 -0.11393,-0.923644 -0.34171,-1.30237 -0.22784,-0.378696 -0.64908,-0.746528 -1.26371,-1.103497 -0.6147,-0.356937 -1.4339,-0.702332 -2.45762,-1.036186 -1.02378,-0.33382 -2.3552,-0.678873 -3.99429,-1.035165 -2.54897,-0.579268 -4.91596,-1.214302 -7.10096,-1.905114 -2.18502,-0.690769 -4.085282,-1.582132 -5.700762,-2.674092 -1.6155,-1.091915 -2.88998,-2.451058 -3.82343,-4.07743 -0.93346,-1.626321 -1.40019,-3.642257 -1.40019,-6.047817 l 0,-0.134611 c 0,-2.182483 0.42123,-4.187201 1.26371,-6.014161 0.84247,-1.826882 2.07146,-3.4086956 3.68696,-4.7454439 1.61548,-1.3366621 3.561232,-2.3728465 5.837242,-3.1085567 2.27598,-0.7356174 4.84751,-1.1034492 7.71458,-1.1034969 4.09774,4.77e-5 7.75101,0.5235792 10.9598,1.5705964 3.20873,1.0471088 6.11051,2.5959464 8.70534,4.6465167 l -6.62381,9.1563714 c -2.18505,-1.514809 -4.42667,-2.662159 -6.72486,-3.442053 -2.29825,-0.779821 -4.51695,-1.169751 -6.6561,-1.169788 -1.59329,3.7e-5 -2.78824,0.289678 -3.58486,0.868928 -0.79665,0.579319 -1.19497,1.291866 -1.19495,2.137641 l 0,0.134634 c -2e-5,0.534443 0.12499,1.002224 0.37505,1.403339 0.25002,0.401179 0.68236,0.76867 1.29705,1.102477 0.61465,0.333868 1.45677,0.668042 2.52638,1.002528 1.06957,0.334548 2.42391,0.679942 4.06305,1.036186 2.73089,0.579314 5.19997,1.258886 7.40724,2.038717 2.20721,0.779884 4.08489,1.726661 5.63305,2.84033 1.54808,1.113719 2.73157,2.461643 3.55047,4.043775 0.81882,1.582175 1.22825,3.465187 1.2283,5.649046 l 0,0.132585 c -5e-5,2.406898 -0.46643,4.545898 -1.39915,6.417007 -0.93281,1.871123 -2.24131,3.463815 -3.92553,4.778081 -1.68429,1.31427 -3.70991,2.316798 -6.07686,3.007589 -2.36701,0.690789 -5.00695,1.036184 -7.91981,1.036175 z"
       style="font-size:30px;font-style:normal;font-weight:bold;text-align:start;text-anchor:start;fill:#0066ff;fill-opacity:1;font-family:Gotham Black"
       id="path3045"
       inkscape:connector-curvature="0"
       sodipodi:nodetypes="ssccsscccccccccsscccccccccccccccccccccccss" />
    <path
       sodipodi:nodetypes="ccccccccccccc"
       inkscape:connector-curvature="0"
       id="path3074"
       style="font-size:30px;font-style:normal;font-weight:normal;text-align:start;text-anchor:start;fill:#0066ff;fill-opacity:1;font-family:Gotham Book"
       d="M 16.895362,20.46926 11.820374,8.7618008 6.7151732,20.46926 z m -6.155311,-14.4668586 2.220154,0 8.715754,21.1495976 -2.062515,0 -2.092997,-5.021775 -11.4303591,0 -2.1851439,5.021775 -2.3687915,0 z"
       transform="matrix(2.0976833,0,0,2.1811352,196.36809,-9.3911063)" />
    <path
       inkscape:connector-curvature="0"
       id="path3076"
       style="font-size:30px;font-style:normal;font-weight:normal;text-align:start;text-anchor:start;fill:#0066ff;fill-opacity:1;font-family:Gotham Book"
       d="m 23.703968,6.1516323 2.3703,0 0,18.8104247 11.819458,0 0,2.189942 -14.189758,0 z"
       transform="matrix(2.0976833,0,0,2.1811352,196.36809,-9.3911063)" />
    <path
       inkscape:connector-curvature="0"
       id="path3078"
       style="font-size:30px;font-style:normal;font-weight:normal;text-align:start;text-anchor:start;fill:#0066ff;fill-opacity:1;font-family:Gotham Book"
       d="m 40.031573,6.1516323 2.370301,0 0,18.8104247 11.819458,0 0,2.189942 -14.189759,0 z"
       transform="matrix(2.0976833,0,0,2.1811352,196.36809,-9.3911063)" />
    <path
       inkscape:connector-curvature="0"
       id="path3082"
       style="font-size:30px;font-style:normal;font-weight:normal;text-align:start;text-anchor:start;fill:#0066ff;fill-opacity:1;font-family:Gotham Book"
       d="m 90.186715,27.511801 c -1.520403,-10e-7 -2.920553,-0.279999 -4.200441,-0.839997 -1.27992,-0.559996 -2.389842,-1.324918 -3.329777,-2.294769 -0.939945,-0.969845 -1.674961,-2.114863 -2.205048,-3.435058 -0.530092,-1.320183 -0.795137,-2.730094 -0.795135,-4.229737 l 0,-0.06043 c -2e-6,-1.48009 0.265043,-2.880083 0.795135,-4.199981 0.530087,-1.31987 1.265103,-2.4748061 2.205048,-3.4648135 0.939935,-0.9899711 2.059927,-1.7699996 3.359987,-2.3400879 1.300038,-0.5700473 2.720018,-0.8550812 4.259951,-0.8551025 0.96007,2.13e-5 1.82509,0.079977 2.59506,0.2398681 0.76994,0.1599331 1.48497,0.385 2.14508,0.6752014 0.66008,0.2902424 1.270125,0.6402786 1.830145,1.0501099 0.55998,0.4098701 1.09998,0.8647341 1.62002,1.3645935 l -1.62048,1.740417 c -0.899685,-0.839826 -1.864495,-1.5298279 -2.894445,-2.0700068 -1.02998,-0.5401423 -2.26518,-0.8102226 -3.7056,-0.8102417 -1.159673,1.91e-5 -2.234503,0.2200507 -3.224481,0.6600952 -0.99,0.4400815 -1.84999,1.0501273 -2.57996,1.8301393 -0.729985,0.780045 -1.300053,1.695114 -1.710204,2.745209 -0.410161,1.050122 -0.615239,2.175152 -0.615234,3.375091 l 0,0.05951 c -5e-6,1.220102 0.205073,2.355203 0.615234,3.405304 0.410151,1.050116 0.980219,1.965185 1.710204,2.745209 0.72997,0.780033 1.58996,1.394962 2.57996,1.844788 0.989978,0.449831 2.064808,0.674745 3.224481,0.674743 1.44042,2e-6 2.6805,-0.265043 3.72025,-0.795135 1.03972,-0.530087 2.05977,-1.274868 3.060155,-2.234345 l 1.56006,1.529847 c -0.54018,0.559695 -1.10522,1.064608 -1.6951,1.51474 -0.58992,0.450135 -1.224845,0.835114 -1.904755,1.154937 -0.67995,0.319825 -1.40993,0.569764 -2.18995,0.749817 -0.78004,0.180054 -1.6501,0.27008 -2.61016,0.270081 z"
       transform="matrix(2.0976833,0,0,2.1811352,196.36809,-9.3911063)" />
    <path
       inkscape:connector-curvature="0"
       id="path3084"
       style="font-size:30px;font-style:normal;font-weight:normal;text-align:start;text-anchor:start;fill:#0066ff;fill-opacity:1;font-family:Gotham Book"
       d="m 110.60699,27.511801 c -1.52039,-10e-7 -2.92054,-0.279999 -4.20044,-0.839997 -1.27991,-0.559996 -2.38983,-1.324918 -3.32977,-2.294769 -0.93994,-0.969845 -1.67496,-2.114863 -2.20505,-3.435058 -0.53009,-1.320183 -0.79513,-2.730094 -0.79513,-4.229737 l 0,-0.06043 c 0,-1.48009 0.26504,-2.880083 0.79513,-4.199981 0.53009,-1.31987 1.26511,-2.4748061 2.20505,-3.4648135 0.93994,-0.9899711 2.05993,-1.7699996 3.35999,-2.3400879 1.30004,-0.5700473 2.72002,-0.8550812 4.25994,-0.8551025 0.96007,2.13e-5 1.82509,0.079977 2.59507,0.2398681 0.76994,0.1599331 1.48497,0.385 2.14508,0.6752014 0.66007,0.2902424 1.27012,0.6402786 1.83014,1.0501099 0.55997,0.4098701 1.09998,0.8647341 1.62002,1.3645935 l -1.62048,1.740417 c -0.89968,-0.839826 -1.86449,-1.5298279 -2.89444,-2.0700068 -1.02998,-0.5401423 -2.26518,-0.8102226 -3.7056,-0.8102417 -1.15968,1.91e-5 -2.23451,0.2200507 -3.22449,0.6600952 -0.98999,0.4400815 -1.84998,1.0501273 -2.57995,1.8301393 -0.72999,0.780045 -1.30006,1.695114 -1.71021,2.745209 -0.41016,1.050122 -0.61524,2.175152 -0.61523,3.375091 l 0,0.05951 c -1e-5,1.220102 0.20507,2.355203 0.61523,3.405304 0.41015,1.050116 0.98022,1.965185 1.71021,2.745209 0.72997,0.780033 1.58996,1.394962 2.57995,1.844788 0.98998,0.449831 2.06481,0.674745 3.22449,0.674743 1.44042,2e-6 2.6805,-0.265043 3.72025,-0.795135 1.03971,-0.530087 2.05976,-1.274868 3.06015,-2.234345 l 1.56006,1.529847 c -0.54019,0.559695 -1.10522,1.064608 -1.6951,1.51474 -0.58993,0.450135 -1.22484,0.835114 -1.90476,1.154937 -0.67995,0.319825 -1.40993,0.569764 -2.18994,0.749817 -0.78004,0.180054 -1.6501,0.27008 -2.61017,0.270081 z"
       transform="matrix(2.0976833,0,0,2.1811352,196.36809,-9.3911063)" />
    <path
       inkscape:connector-curvature="0"
       id="path3086"
       style="font-size:30px;font-style:normal;font-weight:normal;text-align:start;text-anchor:start;fill:#0066ff;fill-opacity:1;font-family:Gotham Book"
       d="m 121.9455,6.1516323 15.18036,0 0,2.1606445 -12.81006,0 0,7.1694942 11.45966,0 0,2.160645 -11.45966,0 0,7.349854 12.95929,0 0,2.159729 -15.32959,0 z"
       transform="matrix(2.0976833,0,0,2.1811352,196.36809,-9.3911063)" />
    <path
       inkscape:connector-curvature="0"
       id="path3088"
       style="font-size:30px;font-style:normal;font-weight:normal;text-align:start;text-anchor:start;fill:#0066ff;fill-opacity:1;font-family:Gotham Book"
       d="m 146.30498,27.452291 c -1.67969,0 -3.21457,-0.275116 -4.60464,-0.825347 -1.39008,-0.550231 -2.715,-1.39511 -3.97476,-2.534638 l 1.46942,-1.740417 c 1.10046,1.00037 2.21069,1.745456 3.33069,2.23526 1.11998,0.489809 2.40996,0.734712 3.86993,0.73471 1.41967,2e-6 2.55446,-0.334928 3.40439,-1.004791 0.8499,-0.669857 1.27486,-1.524806 1.27487,-2.56485 l 0,-0.06042 c -1e-5,-0.47973 -0.08,-0.914605 -0.23987,-1.304626 -0.15992,-0.390008 -0.43992,-0.745079 -0.83999,-1.065216 -0.4001,-0.320121 -0.95506,-0.610191 -1.66489,-0.870209 -0.70985,-0.260001 -1.6147,-0.509939 -2.71454,-0.749817 -1.19996,-0.26 -2.24503,-0.559987 -3.13522,-0.899963 -0.8902,-0.339955 -1.62522,-0.749958 -2.20505,-1.230011 -0.57984,-0.48003 -1.00983,-1.040027 -1.28998,-1.679993 -0.28015,-0.639939 -0.42023,-1.389908 -0.42022,-2.249908 l 0,-0.06042 c -1e-5,-0.819686 0.16998,-1.579573 0.50994,-2.2796631 0.33997,-0.7000547 0.82001,-1.3050651 1.44013,-1.815033 0.62011,-0.5099285 1.35009,-0.909861 2.18994,-1.1997985 0.83984,-0.2898959 1.75994,-0.4348542 2.76032,-0.4348755 1.5399,2.13e-5 2.88481,0.2150174 4.03472,0.644989 1.14989,0.4300129 2.265,1.0750013 3.34534,1.934967 L 151.4649,10.26236 c -0.97963,-0.8001531 -1.96443,-1.3802917 -2.95441,-1.7404174 -0.99,-0.3600884 -2.02516,-0.540142 -3.10547,-0.5401611 -1.38001,1.91e-5 -2.46995,0.325031 -3.26981,0.9750366 -0.79987,0.6500419 -1.1998,1.4550949 -1.19979,2.4151609 l 0,0.06043 c -1e-5,0.499893 0.0799,0.944839 0.23986,1.334839 0.15991,0.390029 0.44983,0.749983 0.86976,1.079864 0.41991,0.329908 0.9999,0.629896 1.73995,0.899964 0.74005,0.270092 1.69021,0.525067 2.8505,0.764923 2.34007,0.520031 4.06508,1.240092 5.17502,2.160187 1.10991,0.920113 1.66487,2.18003 1.66488,3.779754 l 0,0.06043 c -1e-5,0.899663 -0.18007,1.714482 -0.54016,2.444458 -0.36012,0.729983 -0.85512,1.354982 -1.48498,1.875 -0.6299,0.52002 -1.3849,0.920105 -2.26502,1.200256 -0.88014,0.280152 -1.84022,0.420227 -2.88025,0.420227 z"
       transform="matrix(2.0976833,0,0,2.1811352,196.36809,-9.3911063)" />
    <path
       inkscape:connector-curvature="0"
       id="path3090"
       style="font-size:30px;font-style:normal;font-weight:normal;text-align:start;text-anchor:start;fill:#0066ff;fill-opacity:1;font-family:Gotham Book"
       d="m 164.48683,27.452291 c -1.67969,0 -3.21457,-0.275116 -4.60464,-0.825347 -1.39008,-0.550231 -2.715,-1.39511 -3.97476,-2.534638 l 1.46942,-1.740417 c 1.10046,1.00037 2.21069,1.745456 3.33069,2.23526 1.11998,0.489809 2.40996,0.734712 3.86993,0.73471 1.41967,2e-6 2.55446,-0.334928 3.40439,-1.004791 0.8499,-0.669857 1.27486,-1.524806 1.27487,-2.56485 l 0,-0.06042 c -1e-5,-0.47973 -0.08,-0.914605 -0.23987,-1.304626 -0.15992,-0.390008 -0.43992,-0.745079 -0.83999,-1.065216 -0.4001,-0.320121 -0.95506,-0.610191 -1.66489,-0.870209 -0.70985,-0.260001 -1.6147,-0.509939 -2.71454,-0.749817 -1.19996,-0.26 -2.24503,-0.559987 -3.13522,-0.899963 -0.8902,-0.339955 -1.62522,-0.749958 -2.20505,-1.230011 -0.57984,-0.48003 -1.00983,-1.040027 -1.28998,-1.679993 -0.28015,-0.639939 -0.42023,-1.389908 -0.42022,-2.249908 l 0,-0.06042 c -1e-5,-0.819686 0.16998,-1.579573 0.50994,-2.2796631 0.33997,-0.7000547 0.82001,-1.3050651 1.44013,-1.815033 0.62011,-0.5099285 1.35009,-0.909861 2.18994,-1.1997985 0.83984,-0.2898959 1.75994,-0.4348542 2.76032,-0.4348755 1.5399,2.13e-5 2.88481,0.2150174 4.03472,0.644989 1.14989,0.4300129 2.265,1.0750013 3.34534,1.934967 l -1.38061,1.8301291 c -0.97963,-0.8001531 -1.96443,-1.3802917 -2.95441,-1.7404174 -0.99,-0.3600884 -2.02516,-0.540142 -3.10547,-0.5401611 -1.38001,1.91e-5 -2.46995,0.325031 -3.26981,0.9750366 -0.79987,0.6500419 -1.1998,1.4550949 -1.19979,2.4151609 l 0,0.06043 c -1e-5,0.499893 0.0799,0.944839 0.23986,1.334839 0.15991,0.390029 0.44983,0.749983 0.86976,1.079864 0.41991,0.329908 0.9999,0.629896 1.73995,0.899964 0.74005,0.270092 1.69021,0.525067 2.8505,0.764923 2.34007,0.520031 4.06508,1.240092 5.17502,2.160187 1.10991,0.920113 1.66487,2.18003 1.66488,3.779754 l 0,0.06043 c -1e-5,0.899663 -0.18007,1.714482 -0.54016,2.444458 -0.36012,0.729983 -0.85512,1.354982 -1.48498,1.875 -0.6299,0.52002 -1.3849,0.920105 -2.26502,1.200256 -0.88014,0.280152 -1.84022,0.420227 -2.88025,0.420227 z"
       transform="matrix(2.0976833,0,0,2.1811352,196.36809,-9.3911063)" />
    <path
       d="M 74.43543,20.46926 69.360442,8.7618008 64.255242,20.46926 z m -6.155311,-14.4668586 2.220154,0 8.959826,21.1495976 -2.306587,0 -2.092997,-5.021775 -11.430359,0 -2.185144,5.021775 -2.124719,0 z"
       style="font-size:30px;font-style:normal;font-weight:normal;text-align:start;text-anchor:start;fill:#0066ff;fill-opacity:1;font-family:Gotham Book"
       id="path3093"
       inkscape:connector-curvature="0"
       sodipodi:nodetypes="ccccccccccccc"
       transform="matrix(2.0976833,0,0,2.1811352,196.36809,-9.3911063)" />
    <path
       id="path3118"
       d="m 572.53125,0.03125 -6.96875,16 10.84375,0 -3.375,-16 -0.5,0 z"
       style="fill:#0066ff;fill-opacity:1;fill-rule:evenodd;stroke:none"
       inkscape:connector-curvature="0" />
    <path
       id="path3116"
       d="m 579.84375,0.03125 6.625,30.71875 0.5625,0 c 2.81306,0 5.09375,-2.392193 5.09375,-5.375 l 0,-19.9375 c 0,-2.9828072 -2.28069,-5.40625 -5.09375,-5.40625 l -7.1875,0 z"
       style="fill:#0066ff;fill-opacity:1;fill-rule:evenodd;stroke:none"
       inkscape:connector-curvature="0" />
    <path
       style="fill:#0066ff;fill-opacity:1;fill-rule:evenodd;stroke:none"
       d="m 562.09375,21.4375 -1.65625,3.21875 0,0.6875 c 0,2.982807 2.24945,5.375 5.0625,5.375 l 12.9375,0 -1.96875,-9.28125 -9.9375,0 -4.4375,0 z"
       transform="translate(1.1025486,0.03125)"
       id="rect3100"
       inkscape:connector-curvature="0" />
  </g>
</svg>
