<?xml version="1.0" encoding="utf-8"?>
<!-- Generator: Adobe Illustrator 16.0.0, SVG Export Plug-In . SVG Version: 6.00 Build 0)  -->
<!DOCTYPE svg PUBLIC "-//W3C//DTD SVG 1.1//EN" "http://www.w3.org/Graphics/SVG/1.1/DTD/svg11.dtd">
<svg version="1.1"
	 id="svg4" xmlns:inkscape="http://www.inkscape.org/namespaces/inkscape" xmlns:sodipodi="http://sodipodi.sourceforge.net/DTD/sodipodi-0.dtd" xmlns:svg="http://www.w3.org/2000/svg" xmlns:rdf="http://www.w3.org/1999/02/22-rdf-syntax-ns#" xmlns:dc="http://purl.org/dc/elements/1.1/" xmlns:cc="http://creativecommons.org/ns#" sodipodi:docname="Disney+ logo.svg" inkscape:version="0.92.2 (5c3e80d, 2017-08-06)"
	 xmlns="http://www.w3.org/2000/svg" xmlns:xlink="http://www.w3.org/1999/xlink" x="0px" y="0px" width="1000px"
	 height="543.338px" viewBox="0 9.115 1000 543.338" enable-background="new 0 9.115 1000 543.338" xml:space="preserve">
<title  id="title5586">Disney+ logo</title>
<sodipodi:namedview  pagecolor="#ffffff" id="namedview6" borderlayer="true" inkscape:cy="29.632707" inkscape:cx="17.80306" inkscape:zoom="4.9301579" showgrid="false" guidetolerance="1" gridtolerance="1" objecttolerance="1" borderopacity="0.39215686" bordercolor="#000000" inkscape:pagecheckerboard="false" inkscape:showpageshadow="false" inkscape:current-layer="svg4" inkscape:window-maximized="1" inkscape:window-y="-8" inkscape:window-x="-8" inkscape:window-height="705" inkscape:window-width="1366" inkscape:pageshadow="2" inkscape:pageopacity="0">
	</sodipodi:namedview>
<g>
	<path fill="#101C50" d="M453.988,377.341c0.553,0.076,0.673,0.098,1.212,0.168c9.006,1.224,17.856,2.847,24.63,5.875
		c6.278,2.772,9.958,6.28,13.318,12.533c5.109,9.482,5.442,22.766,0.825,32.82c-3.449,7.481-11.02,13.754-17.932,17.079
		c-7.178,3.48-14.25,5.137-22.361,6.063c-14.186,1.562-29.507-1.377-42.272-7.551c-7.552-3.688-16.774-10.039-21.426-18.221
		c-3.421-5.994-3.312-13.793,0.85-19.49c6.634-9.08,20.843-11.079,31.545-10.7c8.159,0.316,22.85,2.838,30.597,5.594
		c2.147,0.776,10.066,3.861,11.448,5.276c0.973,0.984,1.604,2.414,1.167,3.736c-1.77,5.414-14.926,8.268-18.725,8.841
		c-10.17,1.558-15.447-2.291-27.009-6.856c-2.87-1.124-6.695-2.371-9.617-2.641c-5.249-0.5-11.589,0.97-12.591,6.7
		c-0.498,2.953,2.965,5.715,5.606,6.876c6.202,2.664,11.244,3.622,17.348,3.704c18.032,0.297,38.297-2.672,53.046-13.122
		c2.019-1.441,4.002-3.55,4.023-6.209c0.064-5.369-9.349-8.652-9.349-8.652c-9.935-4.142-28.292-6.158-37.749-6.937
		c-9.924-0.859-25.539-2.144-29.288-2.696c-3.86-0.551-8.053-1.33-11.396-2.828c-3.358-1.517-6.643-4.912-7.618-8.668
		c-1.729-6.771,0.477-15.079,4.237-20.488c9.855-14.168,32.94-19.549,50.186-21.686c16.692-2.077,43.677-2.056,60.072,6.656
		c2.531,1.357,3.824,2.619,3.295,5.325c-1.068,5.08-4.886,8.354-9.514,9.789c-4.855,1.545-14.898,2.147-19.309,2.425
		c-19.766,1.108-43.652,0.527-62.479,5.661c-1.475,0.421-4.023,1.108-4.851,2.033c-2.947,3.199,5.47,4.113,7.273,4.479
		c0.536,0.128,0.64,0.146,1.199,0.207L453.988,377.341 M336.399,289.204c0,0,3.215-4.822,5.909-8.48
		c4.905-6.662,13.782-15.901,20.467-21.621c2.045-1.747,4.456-3.726,4.456-3.726s-3.771,0.39-5.908,0.827
		c-5.072,0.987-12.509,5.93-16.225,9.124c-6.132,5.249-12.875,13.782-9.824,21.364C335.717,287.763,336.399,289.204,336.399,289.204
		 M370.487,298.326c9.687-0.668,18.761-3.457,27.209-8.143c8.285-4.636,20.471-13.676,19.207-24.303
		c-0.384-3.44-2.636-6.037-5.479-7.249c-3.695-1.601-5.622-1.343-10.342,0.06c-3.429,1.003-4.974,1.612-8.212,3.465
		c-9.503,5.521-22.977,17.337-30.292,26.767c-1.688,2.224-3.398,4.711-4.736,6.416c-0.844,1.051-1.5,2.016-1.418,2.273
		C356.716,298.681,366.704,298.583,370.487,298.326 M345.823,316.442c-0.999,1.057-2.056,3.605-3.152,5.45
		c-0.586,0.987-1.671,2.258-2.389,2.768c-2.521,1.854-4.657,1.94-7.091-0.202c-3.413-3.019-5.387-7.688-5.527-12.23
		c-0.073-1.982,0.267-4.175-0.108-5.846c-0.621-2.821-3.444-5.727-4.966-8.424c-1.787-3.177-3.233-8.717-3.413-12.294
		c-0.613-11.153,5.266-21.427,12.903-29.53c7.691-8.194,17.753-15.004,28.696-19.64c10.344-4.357,25.502-7.327,36.861-3.393
		c3.698,1.267,8.85,4.414,11.439,7.711c0.55,0.684,0.998,1.424,1.562,1.786c0.505,0.322,1.826,0.449,2.877,0.642
		c3.623,0.628,8.839,3.371,10.97,5.198c4.281,3.693,6.626,7.223,7.711,12.346c2.176,10.308-3.76,21.617-10.521,28.5
		c-11.577,11.846-23.01,20.175-37.82,25.973c-6.505,2.541-16.636,4.915-24.016,4.251c-2.292-0.19-4.646-0.794-6.878-0.942
		c-1.139-0.098-5.303-1.172-5.748-1.475C346.661,316.667,345.948,316.298,345.823,316.442 M359.05,339.296
		c0.451,0.076,1.146,0.278,1.744,0.508c5.192,1.975,7.328,6.78,8.607,12.058c2.964,12.256,4.229,39.37,4.722,49.983
		c0.362,7.966,0.561,15.803,0.895,23.677c0.283,6.668,0.815,15.533-0.575,21.78c-0.505,2.247-2.008,4.86-4.16,6.198
		c-2.465,1.578-8.076,1.698-11.16,1.062c-7.602-1.572-10.072-6.46-11.157-13.978c-2.579-17.939-1.337-53.146,0.185-68.002
		c0.506-4.907,2.354-20.629,4.916-27.221C353.942,343.138,355.805,338.661,359.05,339.296 M127.786,369.143
		c0,0-11.314,0.801-19.101,1.665c-9.907,1.067-28.522,4.281-39.267,8.118c-3.223,1.154-9.77,3.894-10.339,7.208
		c-0.598,3.435,1.534,6.121,3.905,8.9c1.371,1.614,9.131,9.079,11.307,10.893c9.121,7.615,27.616,19.359,41.238,25.062
		c4.68,1.936,12.422,4.708,12.422,4.708s-0.575-22.044-0.472-43.758C127.539,380.484,127.786,369.143,127.786,369.143
		 M335.24,377.916c0.648,5.922-0.874,17.119-1.138,18.596c-0.482,3.404-3.049,11.256-3.475,12.214
		c-2.072,4.772-4.115,8.682-6.28,12.582c-3.71,6.677-12.532,17.262-17.769,21.792c-19.475,16.833-49.623,26.417-75.487,29.574
		c-17.55,2.12-37.716,1.809-56.312-1.632c-6.4-1.164-15.924-3.359-15.924-3.359s0.031,3.808-0.274,6.486
		c-0.148,1.222-1.068,4.438-1.584,5.48c-1.352,2.793-3.572,4.234-6.8,4.854c-3.896,0.723-8.028,0.964-11.628-0.575
		c-5.911-2.487-8.033-8.017-9.063-14.395c-0.833-5.101-1.705-13.968-1.705-13.968s-4.422-2.094-8.109-3.934
		c-11.325-5.58-22.081-12.341-31.491-19.294c-2.607-1.946-13.807-11.326-16.279-13.655c-6.932-6.581-13.168-13.128-17.912-21.529
		c-3.688-6.563-4.75-12.388-1.945-19.342c3.868-9.693,17.765-16.991,27.276-21.15c6.981-3.082,28.688-10.17,37.705-11.484
		c4.259-0.609,10.865-1.792,11.271-2.056c0.166-0.127,0.281-0.235,0.401-0.372c0.208-0.293,0.559-9.888,0.491-13.398
		c-0.088-3.451,2.554-26.117,3.403-30.91c0.443-2.592,2.406-12.57,4.41-15.189c1.311-1.77,3.629-1.627,5.519-0.465
		c10.342,6.431,13.484,28.734,14.253,40.082c0.46,6.914,0.689,17.314,0.689,17.314s11.864-0.351,19.162-0.144
		c7.092,0.165,14.909,1.284,22.27,2.457c9.424,1.511,27.793,5.518,38.328,10.859c8.675,4.398,16.795,11.808,19.426,19.65
		c2.444,7.189,2.078,12.164-1.645,18.652c-4.186,7.326-12.104,12.771-20.132,13.226c-2.389,0.138-11.381-1.057-14.148-3.199
		c-1.085-0.854-1.029-2.395-0.246-3.44c0.297-0.367,4.5-2.602,6.981-3.906c1.244-0.676,2.273-1.405,3.244-2.29
		c2.061-1.815,3.916-3.813,3.709-6.155c-0.285-3.04-3.502-4.915-6.568-6.121c-14.386-5.715-43.109-10.459-56.989-11.28
		c-5.433-0.319-13.161-0.592-13.161-0.592l1.634,76.646c0,0,6.389,1.217,11.424,2.033c2.889,0.438,15.13,1.54,18.383,1.62
		c24.768,0.654,52.412-1.564,75.142-12.29c9.979-4.696,19.134-10.543,26.065-18.458c9.135-10.473,13.919-24.806,12.653-39.777
		c-1.388-16.35-12.895-35.759-22.084-47.577c-24.279-31.223-65.896-56.907-102.51-71.965
		c-37.38-15.363-74.324-24.201-113.995-25.681c-10.227-0.379-32.526,0.137-43.798,3.255c-1.61,0.454-3.233,0.996-4.728,1.332
		c-1.181,0.289-3.042,1.071-3.553,1.484c-0.283,0.229-0.563,0.546-0.563,0.546s0.695,0.384,1.359,0.665
		c1.194,0.521,6.22,0.833,8.821,1.309c2.327,0.438,4.75,1.66,5.709,3.365c0.911,1.621,1.025,2.899-0.064,4.251
		c-2.554,3.106-12.167,2.582-16.4,1.912c-4.399-0.701-9.876-2.047-10.882-5.877c-1.167-4.511,0.976-8.933,3.291-13.021
		c4.651-8.179,11.313-12.433,21.069-15.097c13.857-3.813,31.354-6.479,44.439-6.979c29.616-1.119,57.646,4.06,86.341,12.772
		c16.423,4.966,37.924,13.299,53.665,20.878c11.295,5.446,29.091,15.461,39.088,22.006c3.153,2.081,21.604,15.638,24.47,18.021
		c5.979,4.888,13.799,11.914,19.462,17.533c10.956,10.857,24.583,27.499,31.203,40.708c1.593,3.163,2.827,6.275,4.882,9.941
		c0.707,1.256,3.731,8.768,4.234,10.938c0.498,2.147,1.228,5.303,1.331,5.428C333.948,368.974,335.35,375.428,335.24,377.916
		 M707.563,360.969c-13.869,3.198-50.34,4.974-50.34,4.974l-4.599,14.406c0,0,18.226-1.556,31.485-0.171
		c0,0,4.296-0.499,4.801,4.877c0.171,5.014-0.426,10.394-0.426,10.394s-0.275,3.255-4.888,4.083
		c-4.999,0.833-39.284,2.159-39.284,2.159l-5.552,18.778c0,0-2.063,4.341,2.561,3.102c4.296-1.15,40.22-7.891,44.899-6.921
		c5.014,1.245,10.563,7.93,8.959,14.022c-1.912,7.551-37.767,30.418-59.602,28.822c0,0-11.474,0.74-21.172-14.745
		c-9.032-14.756,3.423-42.696,3.423-42.696s-5.709-13.043-1.572-17.464c0,0,2.462-2.234,9.639-2.739l8.788-18.181
		c0,0-10.01,0.689-15.965-6.675c-5.547-6.986-6.012-10.197-1.759-12.126c4.548-2.246,46.234-9.854,74.919-8.889
		c0,0,9.969-0.979,18.615,16.313C710.495,352.293,714.683,359.286,707.563,360.969 M599.672,430.875
		c-3.676,8.647-13.387,17.875-25.451,12.139c-11.909-5.748-30.878-44.572-30.878-44.572s-7.201-14.477-8.586-14.104
		c0,0-1.556-2.827-2.51,12.993c-0.992,15.753,0.191,46.47-6.093,51.305c-5.953,4.848-13.161,2.918-16.899-2.746
		c-3.398-5.58-4.812-18.839-2.958-42.126c2.179-23.332,7.599-48.156,14.524-55.886c6.915-7.678,12.467-2.104,14.631-0.082
		c0,0,9.25,8.384,24.504,33.003l2.692,4.554c0,0,13.862,23.259,15.31,23.205c0,0,1.133,1.069,2.143,0.301
		c1.455-0.416,0.868-7.874,0.868-7.874s-2.876-25.348-15.522-68.252c0,0-1.912-5.35-0.619-10.363
		c1.284-5.066,6.362-2.688,6.362-2.688s19.6,9.855,29.114,41.766C609.755,393.369,603.404,422.163,599.672,430.875 M810.617,411.763
		c-8.922,15.567-34.11,48.163-67.584,40.467c-11.054,26.806-20.34,53.923-25.65,94.499c0,0-1.167,7.885-7.72,5.146
		c-6.494-2.273-17.191-13.07-19.355-28.007c-2.328-19.621,6.407-52.79,24.26-90.823c-5.207-8.465-8.757-20.559-5.718-37.78
		c0,0,4.484-31.979,36.601-60.802c0,0,3.85-3.325,6.082-2.301c2.459,1.031,1.32,11.437-0.631,16.497
		c-2.027,5.031-16.325,29.784-16.325,29.784s-8.919,16.723-6.409,29.913c16.844-25.897,55.134-78.119,78.867-61.651
		c7.972,5.704,11.647,18.111,11.647,31.48C818.687,389.928,815.855,402.409,810.617,411.763 M803.691,370.749
		c0,0-1.321-10.296-11.387,1.047c-8.658,9.572-24.274,27.506-36.845,51.865c13.19-1.481,25.912-8.637,29.759-12.282
		C791.472,405.83,806.041,390.775,803.691,370.749 M995.018,368.405H933.67c-1.223-20.851-3.74-41.162-7.697-62.08
		c-0.406-2.165-2.29-3.735-4.483-3.735h-14.143c-1.231,0-2.396,0.553-3.194,1.518c-0.8,0.981-1.113,2.229-0.878,3.451
		c4.019,20.242,6.564,40.165,7.82,60.866h-59.021c-2.75,0-4.984,2.227-4.984,4.966v12.756c0,2.745,2.234,4.988,4.984,4.988h59.866
		c0.038,3.148,0.069,5.967,0.069,8.612c0,18.384-0.793,33.528-2.646,50.618c-0.146,1.321,0.286,2.636,1.181,3.605
		c0.868,0.977,2.119,1.534,3.417,1.534h13.117c2.561,0,4.681-1.926,4.938-4.475c1.792-17.206,2.56-32.538,2.56-51.283
		c0-2.635-0.028-5.464-0.067-8.612h60.51c2.743,0,4.982-2.243,4.982-4.988V373.39C1000,370.639,997.761,368.405,995.018,368.405"/>
	<linearGradient id="SVGID_1_" gradientUnits="userSpaceOnUse" x1="930.5029" y1="184.4834" x2="189.4962" y2="84.2954">
		<stop  offset="0" style="stop-color:#101C50"/>
		<stop  offset="0.236" style="stop-color:#0D267A"/>
		<stop  offset="0.4973" style="stop-color:#085AA4"/>
		<stop  offset="0.6549" style="stop-color:#058BBF"/>
		<stop  offset="1" style="stop-color:#B1FFFF"/>
	</linearGradient>
	<path fill="url(#SVGID_1_)" d="M174.713,197.472c-0.869,1.292-1.079,2.877-0.58,4.366c0.521,1.486,1.654,2.616,3.118,3.129
		l10.997,3.701c0.665,0.208,1.326,0.317,1.974,0.317c2.038,0,3.951-1.009,5.084-2.703c36.022-52.919,84.774-96.98,140.994-127.42
		c58.04-31.43,123.799-48.055,190.188-48.055c80.188,0,157.558,23.654,223.751,68.4c64.587,43.646,114.747,104.54,145.059,176.101
		c0.905,2.142,2.997,3.523,5.315,3.523h13.134c1.512,0,2.936-0.762,3.792-2.027c0.86-1.262,1.021-2.865,0.45-4.284
		c-31.256-76.943-84.11-142.534-152.869-189.657C694.732,34.62,612.214,9.115,526.488,9.115
		C384.767,9.115,253.258,79.531,174.713,197.472"/>
</g>
</svg>
