<?xml version="1.0" encoding="UTF-8" standalone="no"?>
<svg
   xmlns:dc="http://purl.org/dc/elements/1.1/"
   xmlns:cc="http://creativecommons.org/ns#"
   xmlns:rdf="http://www.w3.org/1999/02/22-rdf-syntax-ns#"
   xmlns:svg="http://www.w3.org/2000/svg"
   xmlns="http://www.w3.org/2000/svg"
   xmlns:sodipodi="http://sodipodi.sourceforge.net/DTD/sodipodi-0.dtd"
   xmlns:inkscape="http://www.inkscape.org/namespaces/inkscape"
   id="svg10"
   version="1.1"
   viewBox="-0.001 0.001 200 200"
   height="200"
   width="200"
   sodipodi:docname="floatplane.svg"
   inkscape:version="0.92.4 5da689c313, 2019-01-14">
  <sodipodi:namedview
     pagecolor="#000000"
     bordercolor="#666666"
     borderopacity="1"
     objecttolerance="10"
     gridtolerance="10"
     guidetolerance="10"
     inkscape:pageopacity="0"
     inkscape:pageshadow="2"
     inkscape:window-width="640"
     inkscape:window-height="480"
     id="namedview6"
     showgrid="false"
     inkscape:current-layer="svg10" />
  <metadata
     id="metadata16">
    <rdf:RDF>
      <cc:Work
         rdf:about="">
        <dc:format>image/svg+xml</dc:format>
        <dc:type
           rdf:resource="http://purl.org/dc/dcmitype/StillImage" />
        <dc:title></dc:title>
      </cc:Work>
    </rdf:RDF>
  </metadata>
  <defs
     id="defs14" />
  <path
     id="path29"
     d="m 27.290739,0.9875825 c -0.964928,0.121367 -1.813981,0.685482 -2.29948,1.529035 L 18.104671,14.310346 66.654524,76.597816 81.601154,55.3217 29.910251,1.9002625 c -0.679699,-0.697905 -1.654584,-1.034055 -2.619512,-0.91268 z m 73.061841,3.591457 C 85.837904,4.1064245 71.115994,6.8720705 57.290661,13.089488 l 9.411283,9.423128 c 31.35106,-12.028226 66.845446,-4.49162 90.592396,19.249251 23.74695,23.740883 31.29542,59.235583 19.26112,90.580583 l 9.39943,9.41126 C 202.52859,104.88617 194.59002,61.60995 166.00629,33.026218 148.14526,15.165183 124.54371,5.3667295 100.35258,4.5790395 Z M 21.672421,40.576567 C -9.6543725,79.264749 -6.7107525,135.3639 28.487892,170.55647 c 35.198642,35.19865 91.285958,38.13042 129.968048,6.80362 l -8.77121,-8.7712 C 115.8819,195.10317 67.603624,192.21276 37.223547,161.83267 6.8434745,131.45261 3.9293465,83.162482 30.443636,49.35965 Z m 74.851643,15.065167 -1.44606,1.57645 -5.67759,6.163549 -37.170979,40.394997 c 0,0 2.785926,2.5685 7.064382,-0.81785 1.820617,-1.46256 9.171087,-7.599965 16.890517,-14.081365 l 7.59777,9.743166 17.589826,-22.864432 -4.302626,-4.444866 1.26827,-5.15605 c 0.61901,-2.111916 0.73242,-4.323116 0.33188,-6.483583 -0.4855,-1.450433 -1.20474,-2.816283 -2.14539,-4.030016 z m 11.734466,2.7736 c -0.20787,0.0083 -0.41998,0.08533 -0.5808,0.23705 -0.32772,0.2913 -0.38498,0.773766 -0.14217,1.137899 1.87524,2.4639 4.19899,4.54955 6.85104,6.1517 2.9494,1.711383 10.72144,6.684983 11.46183,7.194766 0.57046,0.3884 2.31616,1.5681 8.17856,11.53295 1.7478,3.556283 4.32265,6.635983 7.5148,8.984583 0.34592,0.20025 0.7879,0.131666 1.05492,-0.1778 0.26095,-0.303434 0.26645,-0.7512 0.0237,-1.066784 -4.9885,-5.832049 -9.40549,-12.135082 -13.19239,-18.810682 0.84355,-0.734317 1.8009,-1.317867 2.84472,-1.730533 1.11058,-0.364134 2.07598,-1.062517 2.76175,-2.003167 0.60688,-1.043816 0.51547,-2.360266 -0.23705,-3.306983 -0.32165,-0.473367 -0.87562,-0.741817 -1.44607,-0.699333 -0.57046,0.0365 -1.0845,0.391066 -1.3394,0.900833 -0.8132,1.6689 -2.50296,4.485167 -4.69378,4.7886 -6.4996,-3.805083 -12.67131,-8.137016 -18.46695,-12.943449 -0.17296,-0.1395 -0.3848,-0.197234 -0.59265,-0.18965 z m 11.53295,22.816998 -63.721676,63.721678 c 2.573142,1.40795 5.70138,1.3449 8.22597,-0.15417 l 18.49067,17.06832 c 0.63115,0.57653 1.5591,0.67371 2.29948,0.24891 l 6.59027,-3.84038 -15.62225,-20.77828 c 7.37958,-5.68033 17.31922,-13.34998 26.337356,-20.28048 l 9.83798,7.6689 17.51871,-20.89683 -4.51598,-4.373752 1.76608,-5.35755 c 1.01349,-2.4457 1.25795,-5.142883 0.68749,-7.728166 z m 25.57876,23.314838 -5.725,5.26273 -2.015,1.84907 -19.41519,17.88616 -20.956096,19.26111 c 0,0 2.56024,2.7791 7.111796,-0.23706 2.13618,-1.42009 11.16835,-7.78087 20.15008,-14.12877 l 62.16894,48.43133 11.79372,-6.88658 c 0.83142,-0.49765 1.38425,-1.36434 1.49348,-2.3232 0.11534,-0.95885 -0.22663,-1.91032 -0.92453,-2.58395 l -53.64665,-51.92796 1.26829,-5.13234 c 0.46728,-1.72351 0.6429,-3.52014 0.52151,-5.29828 -0.37018,-1.48078 -0.98786,-2.89176 -1.82535,-4.17226 z m -102.623198,4.77676 -3.84037,6.59027 c -0.43088,0.74038 -0.333687,1.66831 0.248912,2.29946 l 16.99719,18.45512 7.37256,-11.71075 z"
     style="fill:#ffffff;stroke-width:6.06873178"
     inkscape:connector-curvature="0" />
</svg>
