<?xml version="1.0" encoding="UTF-8" standalone="no"?>
<svg
   xmlns:dc="http://purl.org/dc/elements/1.1/"
   xmlns:cc="http://creativecommons.org/ns#"
   xmlns:rdf="http://www.w3.org/1999/02/22-rdf-syntax-ns#"
   xmlns:svg="http://www.w3.org/2000/svg"
   xmlns="http://www.w3.org/2000/svg"
   id="svg10"
   version="1.1"
   viewBox="-0.001 0.001 200 200"
   height="200"
   width="200">
  <metadata
     id="metadata16">
    <rdf:RDF>
      <cc:Work
         rdf:about="">
        <dc:format>image/svg+xml</dc:format>
        <dc:type
           rdf:resource="http://purl.org/dc/dcmitype/StillImage" />
        <dc:title></dc:title>
      </cc:Work>
    </rdf:RDF>
  </metadata>
  <defs
     id="defs14" />
  <path
     id="path29"
     d="m 56.374041,40.592947 c -0.578957,0.07282 -1.088389,0.411289 -1.379688,0.917421 L 50.8624,48.586605 79.992314,85.959089 88.960289,73.193419 57.945748,41.140555 c -0.407819,-0.418743 -0.99275,-0.620433 -1.571707,-0.547608 z m 43.837109,2.154874 C 91.502344,42.464252 82.669193,44.12364 74.373995,47.85409 l 5.646768,5.653877 c 18.810642,-7.216936 40.107277,-2.694972 54.355447,11.549552 14.24817,14.24453 18.77725,35.541351 11.55667,54.348351 l 5.63966,5.64676 C 161.51676,102.9321 156.75362,76.966369 139.60338,59.816129 128.88676,49.099507 114.72583,43.220435 100.21115,42.747821 Z m -47.2081,21.598518 c -18.796077,23.21291 -17.029905,56.872401 4.089283,77.987951 21.119189,21.11919 54.771577,22.87825 77.980837,4.08217 l -5.26273,-5.26272 C 109.52874,157.06231 80.561771,155.32806 62.333726,137.10001 44.105682,118.87197 42.357205,89.897889 58.265779,69.616189 Z m 44.910988,9.0391 -0.867638,0.94587 -3.40655,3.69813 -22.302591,24.237001 c 0,0 1.671556,1.5411 4.23863,-0.49071 1.09237,-0.87754 5.502654,-4.559981 10.13431,-8.448821 l 4.55866,5.8459 10.553901,-13.71866 -2.581578,-2.66692 0.76096,-3.09363 c 0.371407,-1.26715 0.439454,-2.59387 0.199132,-3.89015 -0.291299,-0.87026 -0.722844,-1.68977 -1.287236,-2.41801 z m 7.040682,1.66416 c -0.12472,0.005 -0.25199,0.0512 -0.34848,0.14223 -0.19663,0.17478 -0.23099,0.46426 -0.0853,0.68274 1.12514,1.47834 2.51939,2.72973 4.11062,3.69102 1.76964,1.02683 6.43287,4.01099 6.8771,4.31686 0.34228,0.23304 1.3897,0.94086 4.90714,6.91977 1.04868,2.13377 2.59359,3.98159 4.50888,5.39075 0.20755,0.12015 0.47274,0.079 0.63295,-0.10668 0.15657,-0.18206 0.15987,-0.45072 0.0142,-0.64007 -2.9931,-3.49923 -5.64329,-7.28105 -7.91543,-11.28641 0.50613,-0.44059 1.08054,-0.79072 1.70683,-1.03832 0.66635,-0.21848 1.24559,-0.63751 1.65705,-1.2019 0.36413,-0.62629 0.30928,-1.41616 -0.14223,-1.98419 -0.19299,-0.28402 -0.52537,-0.44509 -0.86764,-0.4196 -0.34228,0.0219 -0.6507,0.23464 -0.80364,0.5405 -0.48792,1.00134 -1.50178,2.6911 -2.81627,2.87316 -3.89976,-2.28305 -7.60279,-4.88221 -11.08017,-7.76607 -0.10378,-0.0837 -0.23088,-0.11834 -0.35559,-0.11379 z m 6.91977,13.6902 -38.233009,38.233011 c 1.543885,0.84477 3.420829,0.80694 4.935585,-0.0925 l 11.094401,10.24099 c 0.378689,0.34592 0.935456,0.40423 1.379687,0.14935 l 3.95416,-2.30423 -9.373347,-12.46697 c 4.427747,-3.4082 10.391529,-8.00999 15.802413,-12.16829 l 5.90279,4.60134 10.51123,-12.5381 -2.70959,-2.624251 1.05965,-3.21453 c 0.60809,-1.46742 0.75477,-3.08573 0.41249,-4.6369 z m 15.34726,13.988901 -3.435,3.15764 -1.209,1.10944 -11.64912,10.7317 -12.57366,11.55667 c 0,0 1.536148,1.66746 4.26708,-0.14224 1.28171,-0.85205 6.70101,-4.66852 12.09005,-8.47726 l 37.30137,29.0588 7.07623,-4.13195 c 0.49885,-0.29859 0.83055,-0.8186 0.89609,-1.39392 0.0692,-0.57531 -0.13598,-1.14619 -0.55472,-1.55037 l -32.18799,-31.15678 0.76097,-3.0794 c 0.28037,-1.03411 0.38574,-2.11209 0.31291,-3.17897 -0.22211,-0.88847 -0.59272,-1.73506 -1.09521,-2.50336 z m -61.573927,2.86606 -2.304222,3.95416 c -0.258528,0.44423 -0.200212,1.00099 0.149347,1.37968 l 10.198315,11.07307 4.423537,-7.02645 z"
     style="fill:#ffffff;stroke-width:3.64123917" />
</svg>
