<svg xmlns="http://www.w3.org/2000/svg" viewBox="0 0 82 82" width="82" height="82">
	<style>
		tspan { white-space:pre }
		.shp0 { fill: #2d6dbe } 
	</style>
	<path id="path4166" class="shp0" d="M77.81 0.01C72.8 0 69.7 0.01 64.74 0.01L64.67 0.01L64.61 0.01L64.6 0.01L64.59 0.01C62.31 0.04 60.39 1.46 59.61 3.5C59.53 3.61 59.47 3.74 59.43 3.86C54.44 18.07 50.09 30.27 45.11 44.49C43.8 48.23 42.5 51.97 41.17 55.72C41.06 56.01 40.78 56.39 40.49 56.47C39.92 56.64 39.9 56.02 39.78 55.67C36.67 46.81 33.57 37.95 30.46 29.1C27.27 20.01 24.63 12.46 21.43 3.35C21.4 3.25 21.35 3.15 21.28 3.05C20.4 1.25 18.55 0.01 16.42 0.01C16.36 0.01 16.3 0.01 16.25 0.01C11.21 0 8.25 -0.01 3.13 0.01C1.44 0.02 0.61 1.26 1.17 2.84C8.87 24.3 16.54 45.74 24.23 67.17C24.81 68.78 25.31 70.21 25.81 71.6C28.74 78.38 33.2 81.93 41.06 82.38C43.37 82.38 42.85 82.39 42.85 82.39C45.41 82.3 48.3 81.91 51.58 81.25L57.04 65.7C64.64 44.71 72.04 24.26 79.74 2.95C79.83 2.71 79.92 2.47 79.97 2.22C80.14 0.96 79.23 0.02 77.81 0.02" />
</svg>