<?xml version="1.0" encoding="UTF-8" standalone="no"?>
<svg
   xmlns:dc="http://purl.org/dc/elements/1.1/"
   xmlns:cc="http://creativecommons.org/ns#"
   xmlns:rdf="http://www.w3.org/1999/02/22-rdf-syntax-ns#"
   xmlns:svg="http://www.w3.org/2000/svg"
   xmlns="http://www.w3.org/2000/svg"
   version="1.1"
   id="svg4390"
   viewBox="0 0 300.00002 83.195814"
   height="23.479708mm"
   width="84.666672mm">
  <defs
     id="defs4392" />
  <metadata
     id="metadata4395">
    <rdf:RDF>
      <cc:Work
         rdf:about="">
        <dc:format>image/svg+xml</dc:format>
        <dc:type
           rdf:resource="http://purl.org/dc/dcmitype/StillImage" />
        <dc:title></dc:title>
      </cc:Work>
    </rdf:RDF>
  </metadata>
  <g
     transform="translate(-1672.8571,-305.05001)"
     id="layer1">
    <g
       transform="matrix(1.442779,0,0,1.442779,376.15916,-595.32537)"
       id="g4369">
      <path
         id="path4166"
         style="fill:#2d6dbe;fill-opacity:1;fill-rule:nonzero;stroke:none"
         d="m 951.98537,624.0663 c -3.47125,-0.01 -5.62125,-0.002 -9.05875,-0.002 l -0.0487,0 -0.0425,0 -0.004,0 -0.006,0 c -1.5775,0.0175 -2.915,1.0025 -3.45,2.415 -0.0588,0.0763 -0.0987,0.16875 -0.1275,0.255 -3.4575,9.845 -6.47125,18.30375 -9.925,28.15625 -0.9075,2.5975 -1.80875,5.185 -2.73375,7.7825 -0.0738,0.20375 -0.26625,0.46625 -0.46625,0.525 -0.39875,0.1125 -0.4075,-0.31125 -0.4925,-0.55375 -2.15625,-6.1425 -4.305,-12.28375 -6.45875,-18.4175 -2.2125,-6.3025 -4.045,-11.5375 -6.26125,-17.84625 -0.0212,-0.0688 -0.0537,-0.1375 -0.105,-0.21 -0.60625,-1.2475 -1.89,-2.10625 -3.37,-2.10625 -0.0412,0 -0.0825,0 -0.1125,0.002 -3.4975,-0.01 -5.54875,-0.0162 -9.09375,0 -1.17125,0.006 -1.74625,0.86375 -1.35875,1.96125 5.33375,14.86875 10.6525,29.73375 15.98,44.58375 0.4025,1.115 0.75125,2.10875 1.0975,3.07 2.02875,4.69875 5.1175,7.15875 10.5675,7.47375 1.605,0 1.24,0.003 1.24,0.003 1.77875,-0.06 3.78,-0.33125 6.055,-0.7875 l 3.77875,-10.775 c 5.2675,-14.5525 10.39875,-28.725 15.7375,-43.49125 0.0612,-0.17 0.125,-0.335 0.155,-0.51 0.12,-0.875 -0.50625,-1.5275 -1.49625,-1.5275" />
      <path
         id="path4170"
         style="fill:#2d6dbe;fill-opacity:1;fill-rule:nonzero;stroke:none"
         d="m 1003.0636,627.95955 0,-0.1075 c 0,-1.97875 -1.5225,-3.59 -3.45625,-3.73625 -0.10125,-0.035 -9.5075,0 -9.5075,0 0,0 0.004,2.03 0.004,5.285 0,9.86625 0.007,18.595 -0.0138,28.61 0,0.9875 -0.0725,2.01375 -0.31625,2.97125 -0.895,3.685 -3.13125,6.235 -6.77625,7.34 -3.6625,1.115 -7.08375,0.485 -9.9725,-2.15375 -2.16625,-1.98125 -3.22,-4.52875 -3.22125,-7.43875 -0.0187,-6.8225 -0.0237,-21.34125 -0.0237,-29.22625 l 0,-5.3875 c 0,0 -9.45625,-0.035 -9.555,0 -1.93375,0.14625 -3.45625,1.7575 -3.45625,3.73625 0,0.0325 0.009,0.0675 0.009,0.1075 l 0,1.7675 c 0,10.24625 -0.0187,18.995 0.0213,29.44625 0.01,1.63125 0.1875,3.28625 0.55875,4.8725 2.72625,11.755 14.32625,19.53125 26.745,17.28875 5.81375,-1.05625 10.59,-3.94625 14.25125,-8.60875 3.02255,-3.8475 4.65255,-8.24375 4.68875,-13.14375 0.045,-5.4775 0.011,-10.94 0.011,-16.4025 l 0,-15.22 0.01,0 z" />
      <path
         id="path4174"
         style="fill:#2d6dbe;fill-opacity:1;fill-rule:nonzero;stroke:none"
         d="m 1106.2292,627.95955 c 0.01,-0.04 0.01,-0.075 0.01,-0.1075 0,-1.97875 -1.5225,-3.59 -3.4512,-3.73625 -0.1088,-0.035 -9.5213,0 -9.5213,0 0,0 0.01,2.03 0.01,5.285 0,9.86625 0.01,18.595 -0.011,28.61 0,0.9875 -0.085,2.01375 -0.315,2.97125 -0.8962,3.685 -3.1375,6.235 -6.7725,7.34 -3.67,1.115 -7.095,0.485 -9.9725,-2.15375 -2.1675,-1.98125 -3.2162,-4.52875 -3.2225,-7.43875 -0.02,-6.8225 -0.02,-21.34125 -0.02,-29.22625 l 0,-5.3875 c 0,0 -9.455,-0.035 -9.5562,0 -1.9288,0.14625 -3.4538,1.7575 -3.4538,3.73625 l 0,0.1075 0,1.7675 c 0,10.24625 -0.018,18.995 0.034,29.44625 0,1.63125 0.1825,3.28625 0.5475,4.8725 2.7275,11.755 14.3312,19.53125 26.7437,17.28875 5.8175,-1.05625 10.59,-3.94625 14.2463,-8.60875 3.0187,-3.8475 4.655,-8.24375 4.6987,-13.14375 0.03,-5.4775 0,-10.94 0,-16.4025 l 0,-15.22 0,0 z" />
      <path
         id="path4186"
         style="fill:#2d6dbe;fill-opacity:1;fill-rule:nonzero;stroke:none"
         d="m 1039.6926,663.6863 c -2.6087,3.10375 -5.9725,4.855 -10.0025,5.30625 -0.7737,0.0875 -1.5575,0.10625 -2.34,0.11125 -2.2287,0.0225 -4.4712,0.0138 -6.705,0.0138 -0.8162,0 -0.8275,0 -0.8275,-0.8 l 0,-15.7425 0,-15.75875 c 0,-0.74 0.011,-0.74875 0.74,-0.74875 2.7313,0.0238 5.4575,-0.0487 8.1888,0.0937 5.0825,0.26125 9.1,2.56125 12.0012,6.7375 1.7738,2.5625 2.6613,5.4575 2.83,8.57125 0.2475,4.57125 -0.9187,8.69875 -3.885,12.21625 m 3.8188,-35.17 c -4.1675,-2.63625 -8.7475,-4.0475 -13.6775,-4.21875 -2.2725,-0.0738 -4.5425,-0.0738 -6.8038,-0.0738 -4.6475,-0.01 -7.3212,-0.002 -11.9537,0 -0.028,0 -0.051,-0.002 -0.086,-0.002 -2.0687,0 -3.7462,1.67875 -3.7462,3.75 0,0.02 0,0.0437 0,0.0712 0,0.15625 0,0.31875 0,0.46125 l 0,24.1075 0,24.63 c 0,0.0237 0,0.0425 0,0.0625 0,2.06625 1.6775,3.75125 3.7462,3.75125 6.7175,-0.0213 11.3313,0 18.0488,-0.0263 1.3637,-0.008 2.7475,-0.12875 4.0912,-0.355 5.485,-0.90875 10.3638,-3.165 14.435,-6.955 7.6638,-7.1375 10.7488,-15.97875 8.94,-26.28375 -1.435,-8.1925 -5.9712,-14.475 -12.9937,-18.91875" />
      <path
         id="path4190"
         style="fill:#2d6dbe;fill-opacity:1;fill-rule:nonzero;stroke:none"
         d="m 1103.986,676.8053 -0.93,0 0,1.24125 0.93,0 c 0.2963,0 0.61,-0.25625 0.61,-0.6025 0,-0.3675 -0.3137,-0.63875 -0.61,-0.63875 m 0.555,2.98125 -0.8762,-1.32875 -0.6088,0 0,1.32875 -0.4487,0 0,-3.37125 1.3787,0 c 0.5688,0 1.0663,0.4025 1.0663,1.02875 0,0.7475 -0.6688,1.00375 -0.855,1.00375 l 0.8937,1.33875 -0.55,0 z m -0.8025,-4.22625 c -1.4012,0 -2.5412,1.1075 -2.5412,2.52875 0,1.4 1.14,2.53875 2.5412,2.53875 1.3988,0 2.535,-1.13875 2.535,-2.53875 0,-1.42125 -1.1362,-2.52875 -2.535,-2.52875 m 0,5.47375 c -1.6237,0 -2.9437,-1.31875 -2.9437,-2.945 0,-1.63625 1.32,-2.93375 2.9437,-2.93375 1.6325,0 2.9438,1.2975 2.9438,2.93375 0,1.62625 -1.3113,2.945 -2.9438,2.945" />
    </g>
  </g>
</svg>
