<?xml version="1.0" encoding="UTF-8" standalone="no"?>
<svg
   xmlns:dc="http://purl.org/dc/elements/1.1/"
   xmlns:cc="http://creativecommons.org/ns#"
   xmlns:rdf="http://www.w3.org/1999/02/22-rdf-syntax-ns#"
   xmlns:svg="http://www.w3.org/2000/svg"
   xmlns="http://www.w3.org/2000/svg"
   height="200"
   width="200"
   xml:space="preserve"
   viewBox="0 0 200 200"
   y="0px"
   x="0px"
   id="Layer_1"
   version="1.1"><metadata
   id="metadata33"><rdf:RDF><cc:Work
       rdf:about=""><dc:format>image/svg+xml</dc:format><dc:type
         rdf:resource="http://purl.org/dc/dcmitype/StillImage" /><dc:title></dc:title></cc:Work></rdf:RDF></metadata><defs
   id="defs31" />
<style
   id="style2"
   type="text/css">
	.st0{fill:#FF0000;}
	.st1{fill:#FFFFFF;}
	.st2{fill:#282828;}
</style>
<g
   transform="translate(39.299745,57.5)"
   id="g8">
	<path
   style="fill:#ff0000"
   id="path4"
   d="M 118.9,13.3 C 117.5,8.1 113.4,4 108.2,2.6 98.7,0 60.7,0 60.7,0 60.7,0 22.7,0 13.2,2.5 8.1,3.9 3.9,8.1 2.5,13.3 0,22.8 0,42.5 0,42.5 0,42.5 0,62.3 2.5,71.7 3.9,76.9 8,81 13.2,82.4 22.8,85 60.7,85 60.7,85 c 0,0 38,0 47.5,-2.5 5.2,-1.4 9.3,-5.5 10.7,-10.7 2.5,-9.5 2.5,-29.2 2.5,-29.2 0,0 0.1,-19.8 -2.5,-29.3 z"
   class="st0" />
	<polygon
   style="fill:#ffffff"
   id="polygon6"
   points="48.6,60.7 80.2,42.5 48.6,24.3 "
   class="st1" />
</g>

</svg>